<svg width="30" height="30" xmlns="http://www.w3.org/2000/svg" viewBox="0 0 512 512">
  <path d="M70.2,162.5c32.4-68.5,103.4-116,185.8-116c57.9,0,110.1,23.4,148.1,61.3c37.9,38,61.3,90.2,61.3,148.1
	c0,57.9-23.4,110.1-61.3,148.1c-38,37.9-90.2,61.3-148.1,61.3c-57.9,0-110.1-23.4-148.1-61.3C70,366.1,46.6,313.9,46.5,256H0
	c0,141.4,114.6,256,256,256c141.4,0,256-114.6,256-256C512,114.6,397.4,0,256,0C155.5,0,68.2,58,28.1,142.6L70.2,162.5L70.2,162.5z
	 M0,69.8v116.4h116.4v-46.5H46.5V69.8H0z M209.5,349.1V155.9l-75.8,20.2l12,45l17.3-4.6l0,132.6H209.5L209.5,349.1z M372.4,256h23.3
	c-0.1-27.1-6.6-52-20.2-71.5c-6.8-9.7-15.5-18.1-26-24c-10.4-5.9-22.6-9.2-35.3-9.2c-12.6,0-24.8,3.3-35.3,9.2
	c-15.8,8.9-27.4,23.2-34.9,39.6c-7.6,16.5-11.3,35.6-11.3,55.9c0.1,27.1,6.6,52,20.2,71.5c6.8,9.7,15.5,18.1,26,24
	c10.4,5.9,22.6,9.2,35.3,9.2c12.6,0,24.8-3.3,35.3-9.2c15.8-8.9,27.4-23.2,34.9-39.6c7.6-16.5,11.3-35.6,11.3-55.9H372.4h-23.3
	c0.1,19.4-5,35.3-11.8,44.8c-3.4,4.8-7,8.1-10.7,10.2c-3.7,2.1-7.5,3.2-12.4,3.2c-4.8,0-8.6-1.1-12.4-3.2c-5.5-3.1-11.1-9-15.4-18.5
	c-4.3-9.4-7.1-22-7.1-36.5c-0.1-19.4,5-35.3,11.8-44.8c3.4-4.8,7-8.1,10.7-10.2c3.7-2.1,7.5-3.2,12.4-3.2c4.8,0,8.6,1.1,12.4,3.2
	c5.5,3.1,11.1,9,15.4,18.5c4.3,9.4,7.1,22,7.1,36.5H372.4z M314.2,174.5v23.3c10.2,0.1,15.4,2.4,19.3,5.1c2.9,2.1,5.3,4.9,7.5,8.7
	c3.3,5.7,5.6,13.7,6.7,21.9c1.2,8.2,1.4,16.3,1.3,22.5c0.1,11.3-0.5,28.9-5.5,40.5c-2.5,5.8-5.4,9.8-9.3,12.5
	c-3.9,2.7-9.4,5.1-20.1,5.1c-10.7-0.1-16.2-2.4-20.1-5.1c-2.9-2.1-5.2-4.8-7.3-8.5c-3.1-5.5-5.3-13.5-6.3-21.7
	c-1.1-8.2-1.1-16.4-1.1-22.9c-0.1-11,0.7-28.6,5.9-40.3c2.5-5.9,5.6-10,9.5-12.8c3.9-2.7,9.2-5,19.5-5.1V174.5v-23.3
	c-18.1-0.1-34.3,4.9-46.6,13.8c-9.2,6.6-16.1,15-20.9,23.6c-7.3,13-10.5,26.3-12.2,38.1c-1.7,11.8-1.8,22.3-1.8,29.1
	c0.1,11.9-0.5,35.1,9.1,58.4c4.8,11.6,12.8,23.7,25.3,32.6c12.5,8.9,28.8,13.8,47.1,13.8c18.3,0.1,34.7-4.8,47.1-13.8
	c9.3-6.6,16.2-15.1,21-23.8c7.2-13.1,10.2-26.5,11.8-38.3c1.5-11.8,1.5-22.2,1.5-28.8c-0.1-12.4-0.1-35.5-9.8-58.6
	c-4.9-11.5-12.8-23.4-25.2-32.3c-12.3-8.9-28.4-13.9-46.5-13.8V174.5z" fill="#B3B3B3" />
</svg>
