<svg xmlns="http://www.w3.org/2000/svg"><symbol id="logo" viewBox="0 0 50 50"><path d="M20.45 5.26c-1.358.437-2.504 1.217-2.79 1.896l-.12.286-1.884-.009-.244-.503c-.187-.383-.349-.56-.686-.743l-.44-.241h-3.18c-4.171 0-4.697.207-4.697 1.858v.464l-.71.347c-2.615 1.277-4.664 3.801-5.473 6.74l-.226.82v10.083c0 11.012-.033 10.3.547 11.859 1.301 3.492 4.316 6.018 8.002 6.709 1.24.232 31.662.232 32.902 0 3.686-.69 6.701-3.216 8.002-6.71.58-1.558.547-.846.547-11.858V16.175l-.217-.772c-1.134-4.038-4.04-6.791-8.149-7.724-.614-.14-1.42-.174-4.958-.21l-4.223-.045-.116-.277c-.287-.681-1.516-1.501-2.87-1.914-1.068-.325-7.991-.305-9.016.026Zm19.61 5.562c2.993.304 5.326 2.13 6.338 4.965l.275.772.028 9.312c.032 10.648.064 10.15-.777 11.863-.948 1.928-2.86 3.386-4.995 3.811-1.143.228-30.718.228-31.858 0-2.155-.43-4.06-1.917-5.062-3.95-.764-1.552-.742-1.188-.71-11.724l.028-9.312.304-.843c.977-2.7 3.365-4.6 6.143-4.887 1.185-.122 29.078-.13 30.286-.008v.001ZM9.517 11.888c-3.138.454-5.163 3.006-5.163 6.51v1.297h6.712l.225-.458c.993-2.025 2.993-4.22 5.145-5.65.804-.535 2.925-1.61 3.175-1.61.058 0 .105-.044.105-.098 0-.118-9.37-.111-10.199.008v.001Zm20.767-.033c0 .045.165.14.367.21 3.07 1.064 6.811 4.405 8.088 7.221l.186.41h6.722V18.4c0-3.27-1.513-5.415-4.5-6.382-.589-.19-10.862-.343-10.862-.161l-.001-.001Zm-6.213.663c-11.405 1.098-16.939 13.457-9.978 22.28 7.696 9.753 23.784 4.904 24.793-7.474.675-8.29-6.633-15.593-14.815-14.806Zm2.593 3.427c6.569.93 10.664 8.018 8.164 14.132-2.88 7.045-12.12 8.85-17.414 3.403-7.023-7.226-.832-18.961 9.25-17.534Zm-2.792 1.627c-5.91.823-9.319 6.775-6.983 12.198 2.68 6.224 11.672 6.996 15.487 1.33 4.175-6.2-1.081-14.56-8.504-13.528Zm3.845 1.338c1.141.35 1.995 1.167 2.015 1.927.046 1.752-3.503 1.696-4.69-.073-.903-1.345.705-2.459 2.675-1.854ZM22.7 32.255c1.081.225 2.691 1.2 2.691 1.63 0 1.002-3.634.354-4.695-.836-.733-.824.16-1.178 2.004-.794ZM41.913 36c-2.02.618-1.628 3.387.477 3.38 2.14-.006 2.3-3.116.174-3.406-.215-.03-.508-.017-.651.027Z"/></symbol><symbol id="play-btn" viewBox="0 0 130 130"><path d="M58.521.136c-.5.12-2.951.55-5.448.955C6.174 8.698-16.008 65.904 13.026 104.367c9.042 11.977 29.806 25.539 30.835 20.139.129-.674-1.108-1.528-4.176-2.882-12.586-5.559-23.975-16.512-30.19-29.03-22.57-45.466 16.045-96.917 66.47-88.565 7.575 1.255 8.89-1.361 1.467-2.918C74.053.403 60.344-.304 58.52.136Zm.303 13.407c-8.868 1.306-20.279 5.847-20.279 8.068 0 1.724 1.281 1.59 5.961-.62 25.636-12.113 56.848 1.14 66.134 28.08 15.435 44.781-35.52 82.689-74.213 55.208-21.5-15.27-26.459-45.6-11.024-67.44 4.096-5.795 1.94-8.245-2.242-2.547-25.769 35.105 1.135 84.69 44.61 82.215 43.887-2.499 64.87-55.086 34.67-86.888-11.072-11.658-28.932-18.241-43.617-16.078v.002Zm52.764 7.906c-.9.9-.212 2.511 2.669 6.255 21.363 27.754 14.369 69.239-14.963 88.756-13.217 8.795-24.822 11.232-46.523 9.773-2.044-.137-2.422.019-2.422 1.004 0 4.474 25.975 3.261 38.854-1.815 37.765-14.883 52.655-62.927 29.891-96.448-4.32-6.36-6.492-8.539-7.506-7.525ZM47.265 44.11c-1.074 1.185-1.166 2.576-1.33 20.092-.27 28.797-3.137 27.926 31.634 9.608 16.945-8.928 17.04-8.648-7.263-21.397-19.002-9.967-20.911-10.656-23.041-8.303Zm20.999 10.894c18.462 9.643 18.558 9.703 17.267 10.775C84.083 66.982 51.16 84 50.285 84c-.704 0-.844-3.165-.844-19.068 0-13.375.198-19.068.661-19.068.363 0 8.537 4.114 18.162 9.141Z"/></symbol><symbol id="instagram" viewBox="0 0 32 32"><path d="M17.36 2.667c2.4 0 2.907.027 4.133.08 1.413.067 2.387.293 3.227.627.88.333 1.627.8 2.36 1.533.747.733 1.2 1.48 1.547 2.36.333.84.547 1.813.613 3.24.067 1.267.08 1.76.08 4.427v2.133c0 2.667-.013 3.16-.08 4.427a9.763 9.763 0 0 1-.636 3.294l.022-.067c-.347.88-.8 1.627-1.533 2.36a6.632 6.632 0 0 1-2.373 1.547c-.84.333-1.813.547-3.227.613-1.267.067-1.773.08-4.44.08h-2.12c-2.667 0-3.16-.013-4.44-.08a9.763 9.763 0 0 1-3.294-.636l.067.022a6.575 6.575 0 0 1-2.359-1.533l-.001-.001a6.544 6.544 0 0 1-1.532-2.329l-.015-.045a9.59 9.59 0 0 1-.613-3.217v-.01a70.693 70.693 0 0 1-.08-4.167v.034-2.733c0-2.4.027-2.907.08-4.133.067-1.413.293-2.387.613-3.227.347-.88.8-1.627 1.547-2.36a6.27 6.27 0 0 1 2.317-1.519l.043-.014a9.576 9.576 0 0 1 3.215-.626h.012c1.227-.053 1.733-.08 4.133-.08h2.734Zm.027 2.4H14.6c-2.307 0-2.8.027-4 .08-1.293.053-2 .267-2.467.453a4.068 4.068 0 0 0-1.533 1c-.466.467-.76.907-1 1.533-.173.467-.4 1.173-.453 2.48-.053 1.2-.08 1.68-.08 4v2.773c0 2.32.027 2.8.08 4 .053 1.293.267 2 .453 2.467.24.627.533 1.067 1 1.533.467.466.907.76 1.533 1 .467.187 1.173.4 2.48.453 1.293.067 1.76.08 4.64.08h1.48c2.893 0 3.347-.013 4.653-.08 1.293-.053 2-.267 2.467-.453a4.068 4.068 0 0 0 1.533-1c.466-.467.76-.907 1-1.533.187-.467.4-1.173.453-2.467.067-1.307.08-1.76.08-4.653v-1.467c0-2.893-.013-3.36-.08-4.667-.053-1.293-.267-2-.453-2.467a4.142 4.142 0 0 0-.999-1.532l-.001-.001a4.141 4.141 0 0 0-1.505-.991l-.028-.009a7.322 7.322 0 0 0-2.462-.453h-.005a70.03 70.03 0 0 0-4.03-.08h.03l.001.001ZM16 9.147a6.847 6.847 0 1 1 0 13.694 6.847 6.847 0 0 1 0-13.694Zm0 2.4a4.447 4.447 0 1 0 0 8.894 4.447 4.447 0 0 0 0-8.894Zm7.107-4.267a1.6 1.6 0 1 1 0 3.2 1.6 1.6 0 0 1 0-3.2Z"/></symbol><symbol id="facebook" viewBox="0 0 32 32"><path d="M13.04 29.333 13 17.666H8v-5h5V9.333c0-4.493 2.787-6.667 6.8-6.667 1.92 0 3.573.133 4.053.2v4.707h-2.787c-2.173 0-2.6 1.04-2.6 2.56v2.533h6.2l-1.667 5h-4.533v11.667h-5.427.001Z"/></symbol><symbol id="twitter" viewBox="0 0 32 32"><path d="M29.333 7.84c-1 .493-2 .667-3.173.827 1.173-.667 2-1.667 2.333-3a10.755 10.755 0 0 1-3.423 1.322l-.07.012a5.795 5.795 0 0 0-3.996-1.667H21c-2.84 0-5.333 2.507-5.333 5.507 0 .493 0 .827.173 1.16A15.317 15.317 0 0 1 4.529 6.362l-.022-.028a5.012 5.012 0 0 0-.666 2.855l-.001-.015a5.466 5.466 0 0 0 2.473 4.481l.021.013c-.84 0-1.667-.333-2.507-.667 0 2.667 1.84 4.84 4.333 5.333-.493.173-1 .173-1.493.173-.333 0-.667 0-1-.173.667 2.173 2.667 3.84 5.173 3.84a10.535 10.535 0 0 1-6.637 2.335l-.213-.002h.011-1.333c2.365 1.509 5.236 2.429 8.316 2.493h.017c10 0 15.507-8.333 15.507-15.507v-.667a9.777 9.777 0 0 0 2.803-2.944l.024-.042h-.002Z"/></symbol><symbol id="pinterest" viewBox="0 0 32 32"><path d="M16 2.667C8.657 2.694 2.714 8.653 2.714 16c0 5.599 3.452 10.393 8.343 12.368l.089.032c-.133-1.053-.227-2.667.04-3.827l1.56-6.627s-.4-.8-.4-1.973c0-1.853 1.08-3.227 2.427-3.227 1.133 0 1.693.853 1.693 1.867 0 1.147-.733 2.853-1.12 4.44-.32 1.333.667 2.413 1.987 2.413 2.373 0 4.187-2.493 4.187-6.093 0-3.2-2.293-5.413-5.573-5.413a5.773 5.773 0 0 0-6.026 5.767v.006c0 1.147.44 2.373.987 3.04.107.133.12.253.08.387l-.373 1.507c-.053.24-.2.307-.44.187-1.68-.787-2.72-3.2-2.72-5.173 0-4.2 3.067-8.053 8.827-8.053 4.613 0 8.227 3.28 8.227 7.693 0 4.6-2.907 8.293-6.933 8.293-1.333 0-2.613-.707-3.04-1.533l-.84 3.16a14.615 14.615 0 0 1-1.688 3.563l.034-.056c1.17.372 2.516.587 3.911.587 7.364 0 13.333-5.97 13.333-13.333 0-7.347-5.942-13.306-13.282-13.333h-.003L16 2.667Z"/></symbol></svg>